<?xml version="1.0" encoding="utf-8"?>
<!-- Generator: Adobe Illustrator 27.2.0, SVG Export Plug-In . SVG Version: 6.00 Build 0)  -->
<svg version="1.1" id="Calque_1" xmlns="http://www.w3.org/2000/svg" xmlns:xlink="http://www.w3.org/1999/xlink" x="0px" y="0px"
	 viewBox="0 0 1920 1080" style="enable-background:new 0 0 1920 1080;" xml:space="preserve">
<style type="text/css">
	.st0{fill:#234F72;}
	.st1{fill:url(#SVGID_1_);}
	.st2{fill:url(#SVGID_00000165206297485639929830000013261228666329649537_);}
	.st3{fill:#5D8AA4;}
	.st4{fill:url(#SVGID_00000176042144834462826580000004014613062576744852_);}
	.st5{fill:url(#SVGID_00000016796855196659553680000017052620809733884304_);}
	.st6{fill:url(#SVGID_00000163756050745136362960000006227486348857860498_);}
	.st7{fill:url(#SVGID_00000029766918628046891070000010094348991478681513_);}
	.st8{fill:url(#SVGID_00000135651223888155134110000002479299893315974542_);}
	.st9{fill:url(#SVGID_00000138574194241349525320000018349802348039471795_);}
	.st10{fill:url(#SVGID_00000137843233273153026050000014788449730490674595_);}
	.st11{opacity:0.75;fill:url(#SVGID_00000158745012706353089440000008640633699477857709_);}
	.st12{opacity:0.75;fill:url(#SVGID_00000031900359632491808680000001378926024155614376_);}
	.st13{opacity:0.75;fill:url(#SVGID_00000064319897556973860110000000541386111034785709_);}
	.st14{opacity:0.7;fill:url(#SVGID_00000095313179572680761200000000929614141980584071_);}
	.st15{opacity:0.6;fill:url(#SVGID_00000009569446533070046100000001803993546420220817_);}
	.st16{opacity:0.65;fill:url(#SVGID_00000070101785270108942280000006070903115160767411_);}
	.st17{opacity:0.6;fill:url(#SVGID_00000043431903431255940630000016300931638894415496_);}
	.st18{opacity:0.7;fill:url(#SVGID_00000077291375188894873700000016169191189331891335_);}
	.st19{opacity:0.64;fill:url(#SVGID_00000052092170973835510070000007855178988109267370_);}
	.st20{opacity:0.7;fill:url(#SVGID_00000031906904818801143170000014501591113618311841_);}
	.st21{opacity:0.7;fill:url(#SVGID_00000095333013421705200350000000634825990096827324_);}
	.st22{opacity:0.64;fill:url(#SVGID_00000016781493237228754950000005616514319730014876_);}
	.st23{opacity:0.64;fill:url(#SVGID_00000128473577398944278050000013794886966411460522_);}
	.st24{opacity:0.75;fill:url(#SVGID_00000154403058713409577620000011580975325293706388_);}
	.st25{opacity:0.75;fill:url(#SVGID_00000161631793037273640680000001871098062659721101_);}
	.st26{opacity:0.64;fill:url(#SVGID_00000098918504331324218640000007565361809841340604_);}
</style>
<g>
	<g>
		<rect x="-7.51" y="0.79" class="st0" width="1927.51" height="1080.52"/>
		<linearGradient id="SVGID_1_" gradientUnits="userSpaceOnUse" x1="956.2426" y1="-105.166" x2="956.2426" y2="735.0328">
			<stop  offset="0" style="stop-color:#CCE0F4"/>
			<stop  offset="0.263" style="stop-color:#93B4CD"/>
			<stop  offset="0.526" style="stop-color:#608EAA"/>
			<stop  offset="0.7243" style="stop-color:#417695"/>
			<stop  offset="0.8346" style="stop-color:#356D8D"/>
		</linearGradient>
		<rect x="-7.51" y="0.79" class="st1" width="1927.51" height="1080.52"/>
	</g>
	
		<linearGradient id="SVGID_00000031925423843022326110000003120161060042654383_" gradientUnits="userSpaceOnUse" x1="79.3009" y1="485.8927" x2="79.3009" y2="785.2781">
		<stop  offset="0" style="stop-color:#CCE0F4"/>
		<stop  offset="0.1335" style="stop-color:#A6C3DB"/>
		<stop  offset="0.3984" style="stop-color:#618FAE"/>
		<stop  offset="0.6199" style="stop-color:#2E698D"/>
		<stop  offset="0.7866" style="stop-color:#0F5179"/>
		<stop  offset="0.8793" style="stop-color:#034871"/>
	</linearGradient>
	<polygon style="fill:url(#SVGID_00000031925423843022326110000003120161060042654383_);" points="-7.51,523.65 89.57,562.33 
		166.12,908.67 -7.51,897.57 	"/>
	<polygon class="st3" points="-7.51,967.35 1920,1049.07 1920,949.15 1084.5,967.35 -7.51,897.57 	"/>
	
		<linearGradient id="SVGID_00000137845954601840791480000014538858482562321314_" gradientUnits="userSpaceOnUse" x1="1862.66" y1="1010.8419" x2="1881.8712" y2="821.9328">
		<stop  offset="0.2983" style="stop-color:#204A66"/>
		<stop  offset="0.9888" style="stop-color:#3D7393"/>
	</linearGradient>
	<path style="fill:url(#SVGID_00000137845954601840791480000014538858482562321314_);" d="M1920,987.83h-85.11
		c-11.23,0-20.37-8.68-20.52-19.48c-0.67-47.86,7.55-168.88,105.62-190.05V987.83z"/>
	
		<linearGradient id="SVGID_00000065758932485616360030000000402065682077352598_" gradientUnits="userSpaceOnUse" x1="1298.5981" y1="995.7524" x2="1304.5321" y2="937.4017">
		<stop  offset="0.2592" style="stop-color:#204A66"/>
		<stop  offset="0.9441" style="stop-color:#3D7393"/>
	</linearGradient>
	<path style="fill:url(#SVGID_00000065758932485616360030000000402065682077352598_);" d="M1283.43,987.83h47.89
		c17.61,0,27.11-19.87,15.65-32.73l-15.21-17.06c-18.96-21.27-53.18-21.27-72.14,0l0,0C1242.17,957.6,1256.63,987.83,1283.43,987.83
		z"/>
	
		<linearGradient id="SVGID_00000178905303880955140990000016872935977360219036_" gradientUnits="userSpaceOnUse" x1="1393.1833" y1="1011.68" x2="1399.4734" y2="949.8281">
		<stop  offset="0.0978" style="stop-color:#204A66"/>
		<stop  offset="1" style="stop-color:#3B7190"/>
	</linearGradient>
	<path style="fill:url(#SVGID_00000178905303880955140990000016872935977360219036_);" d="M1347.32,1000.3h103.2
		c17.03,0,25.6-19.77,13.6-31.4l-11.14-10.8c-34.61-33.55-91.57-31.73-123.8,3.95l0,0C1315.67,977.01,1326.72,1000.3,1347.32,1000.3
		z"/>
	
		<linearGradient id="SVGID_00000154384715958825878460000009977599163738479028_" gradientUnits="userSpaceOnUse" x1="34.1697" y1="933.0789" x2="43.033" y2="845.923">
		<stop  offset="0.2983" style="stop-color:#204A66"/>
		<stop  offset="0.9888" style="stop-color:#3D7393"/>
	</linearGradient>
	<path style="fill:url(#SVGID_00000154384715958825878460000009977599163738479028_);" d="M16.76,922.04h37.12l-17.81-95.33
		c-1.01-5.39-9.16-5.08-9.71,0.38L16.76,922.04z"/>
	
		<linearGradient id="SVGID_00000122700175713975856370000015256672657376370596_" gradientUnits="userSpaceOnUse" x1="247.8462" y1="952.3688" x2="247.8462" y2="907.2402">
		<stop  offset="0.2983" style="stop-color:#204A66"/>
		<stop  offset="0.9888" style="stop-color:#3D7393"/>
	</linearGradient>
	<path style="fill:url(#SVGID_00000122700175713975856370000015256672657376370596_);" d="M235.3,939.89h25.08
		c17.39,0,26.01-20.29,13.6-32l-16.26-15.33c-9.16-8.64-24.37-6.51-30.59,4.29l-8.82,15.33
		C211.15,924.63,220.51,939.89,235.3,939.89z"/>
	
		<linearGradient id="SVGID_00000072248019893283894380000016364627518676615811_" gradientUnits="userSpaceOnUse" x1="7701.6792" y1="137.9962" x2="7701.6792" y2="103.8874" gradientTransform="matrix(-1 0 0 -1 7994 1041)">
		<stop  offset="0.644" style="stop-color:#376A89"/>
		<stop  offset="0.9888" style="stop-color:#285673"/>
	</linearGradient>
	<path style="fill:url(#SVGID_00000072248019893283894380000016364627518676615811_);" d="M292.52,952.25H279
		c-11.71,0-19.03-10.97-13.18-19.74l6.76-10.12v0c8.86-13.27,31.01-13.27,39.87,0v0l6.29,9.42c6.06,9.08-1.52,20.44-13.64,20.44
		H292.52z"/>
	
		<linearGradient id="SVGID_00000113336798855409599880000010885562212883541891_" gradientUnits="userSpaceOnUse" x1="-4.4562" y1="943.1138" x2="15.4046" y2="747.8158">
		<stop  offset="0.2983" style="stop-color:#204A66"/>
		<stop  offset="0.9888" style="stop-color:#3D7393"/>
	</linearGradient>
	<path style="fill:url(#SVGID_00000113336798855409599880000010885562212883541891_);" d="M-7.51,922.04h32.84L3.4,705.69
		c-1.04-10.22-8.19-11.37-10.92-4.27V922.04z"/>
	
		<linearGradient id="SVGID_00000168828108747163678420000016248318168723735997_" gradientUnits="userSpaceOnUse" x1="410.5257" y1="-153.1554" x2="5.5874" y2="1171.338">
		<stop  offset="0" style="stop-color:#FFFFFF"/>
		<stop  offset="0.1279" style="stop-color:#FFFFFF;stop-opacity:0.8721"/>
		<stop  offset="1" style="stop-color:#FFFFFF;stop-opacity:0"/>
	</linearGradient>
	<polygon style="opacity:0.75;fill:url(#SVGID_00000168828108747163678420000016248318168723735997_);" points="398.22,0.79 
		-133,1158.75 -42.86,1196.98 505.9,0.79 	"/>
	
		<linearGradient id="SVGID_00000075149301561656265670000009967090926512789898_" gradientUnits="userSpaceOnUse" x1="544.2097" y1="-147.3299" x2="156.1565" y2="1121.9348">
		<stop  offset="0" style="stop-color:#FFFFFF"/>
		<stop  offset="0.1342" style="stop-color:#FFFFFF;stop-opacity:0.8658"/>
		<stop  offset="1" style="stop-color:#FFFFFF;stop-opacity:0"/>
	</linearGradient>
	<polygon style="opacity:0.75;fill:url(#SVGID_00000075149301561656265670000009967090926512789898_);" points="529.87,0.79 
		21.53,1108.87 111.67,1147.1 637.55,0.79 	"/>
	
		<linearGradient id="SVGID_00000049939023005570540550000009511073724567577987_" gradientUnits="userSpaceOnUse" x1="665.35" y1="-162.8511" x2="232.309" y2="1253.562">
		<stop  offset="0" style="stop-color:#FFFFFF"/>
		<stop  offset="0.1175" style="stop-color:#FFFFFF;stop-opacity:0.8542"/>
		<stop  offset="0.8063" style="stop-color:#FFFFFF;stop-opacity:0"/>
	</linearGradient>
	<polygon style="opacity:0.75;fill:url(#SVGID_00000049939023005570540550000009511073724567577987_);" points="656.43,0.79 
		87.13,1241.76 177.26,1280 764.11,0.79 	"/>
	
		<linearGradient id="SVGID_00000044877791390056947780000017560207270218784952_" gradientUnits="userSpaceOnUse" x1="840.689" y1="-142.7632" x2="493.9771" y2="991.2803">
		<stop  offset="0" style="stop-color:#FFFFFF"/>
		<stop  offset="0.545" style="stop-color:#FFFFFF;stop-opacity:0"/>
	</linearGradient>
	<polygon style="opacity:0.7;fill:url(#SVGID_00000044877791390056947780000017560207270218784952_);" points="779.73,0.79 
		339.37,960.7 490.9,1024.98 960.76,0.79 	"/>
	
		<linearGradient id="SVGID_00000178915704232986311400000013966416371098636944_" gradientUnits="userSpaceOnUse" x1="1338.5178" y1="-90.0661" x2="1091.2925" y2="718.5717">
		<stop  offset="0" style="stop-color:#FFFFFF"/>
		<stop  offset="0.8872" style="stop-color:#FFFFFF;stop-opacity:0"/>
	</linearGradient>
	<polygon style="opacity:0.6;fill:url(#SVGID_00000178915704232986311400000013966416371098636944_);" points="1344.45,0.79 
		1016.27,716.17 1051.47,731.1 1386.5,0.79 	"/>
	
		<linearGradient id="SVGID_00000003796810797413214660000005898734288463001272_" gradientUnits="userSpaceOnUse" x1="1143.1575" y1="-92.3013" x2="905.6338" y2="684.6038">
		<stop  offset="0" style="stop-color:#FFFFFF"/>
		<stop  offset="0.9992" style="stop-color:#FFFFFF;stop-opacity:0"/>
	</linearGradient>
	<polygon style="opacity:0.65;fill:url(#SVGID_00000003796810797413214660000005898734288463001272_);" points="1123.96,0.79 
		815.8,672.51 886.34,702.44 1208.23,0.79 	"/>
	
		<linearGradient id="SVGID_00000080928066925112477000000000282018519012242321_" gradientUnits="userSpaceOnUse" x1="1246.2084" y1="-96.5979" x2="996.231" y2="721.0413">
		<stop  offset="0" style="stop-color:#FFFFFF"/>
		<stop  offset="0.3042" style="stop-color:#FFFFFF;stop-opacity:0.524"/>
		<stop  offset="0.9992" style="stop-color:#FFFFFF;stop-opacity:0"/>
	</linearGradient>
	<polygon style="opacity:0.6;fill:url(#SVGID_00000080928066925112477000000000282018519012242321_);" points="1228.51,0.79 
		903.48,709.3 974.02,739.23 1312.78,0.79 	"/>
	
		<linearGradient id="SVGID_00000098213610231368555320000009901481934357791917_" gradientUnits="userSpaceOnUse" x1="1600.9146" y1="-116.2324" x2="1327.5138" y2="778.0214">
		<stop  offset="0" style="stop-color:#FFFFFF"/>
		<stop  offset="0.0935" style="stop-color:#FFFFFF;stop-opacity:0.8815"/>
		<stop  offset="0.789" style="stop-color:#FFFFFF;stop-opacity:0"/>
	</linearGradient>
	<polygon style="opacity:0.7;fill:url(#SVGID_00000098213610231368555320000009901481934357791917_);" points="1536.44,0.79 
		1193.9,747.46 1337.59,808.42 1708.1,0.79 	"/>
	
		<linearGradient id="SVGID_00000113316514742509899990000017660226031414217361_" gradientUnits="userSpaceOnUse" x1="1727.1798" y1="-97.9004" x2="1461.0199" y2="772.6693">
		<stop  offset="0" style="stop-color:#FFFFFF"/>
		<stop  offset="0.9992" style="stop-color:#FFFFFF;stop-opacity:0"/>
	</linearGradient>
	<polygon style="opacity:0.64;fill:url(#SVGID_00000113316514742509899990000017660226031414217361_);" points="1729.81,0.79 
		1377.57,768.6 1421.01,787.03 1781.7,0.79 	"/>
	
		<linearGradient id="SVGID_00000178888114346700954520000012532497950129280150_" gradientUnits="userSpaceOnUse" x1="1012.5709" y1="-124.3064" x2="702.0142" y2="891.4787">
		<stop  offset="0" style="stop-color:#FFFFFF"/>
		<stop  offset="0.0563" style="stop-color:#FFFFFF;stop-opacity:0.9191"/>
		<stop  offset="0.6966" style="stop-color:#FFFFFF;stop-opacity:0"/>
	</linearGradient>
	<polygon style="opacity:0.7;fill:url(#SVGID_00000178888114346700954520000012532497950129280150_);" points="972.94,0.79 
		574.2,869.97 687.86,918.18 1108.71,0.79 	"/>
	
		<linearGradient id="SVGID_00000006701269086396967240000012827136037364744834_" gradientUnits="userSpaceOnUse" x1="1423.6082" y1="-97.1181" x2="1175.8197" y2="713.361">
		<stop  offset="0" style="stop-color:#FFFFFF"/>
		<stop  offset="0.0434" style="stop-color:#FFFFFF;stop-opacity:0.9449"/>
		<stop  offset="0.789" style="stop-color:#FFFFFF;stop-opacity:0"/>
	</linearGradient>
	<polygon style="opacity:0.7;fill:url(#SVGID_00000006701269086396967240000012827136037364744834_);" points="1400.17,0.79 
		1079.67,699.41 1158.29,732.76 1494.09,0.79 	"/>
	
		<linearGradient id="SVGID_00000138537745527098519410000016968125106218653333_" gradientUnits="userSpaceOnUse" x1="1916.4052" y1="290.6189" x2="1715.4194" y2="948.0135">
		<stop  offset="0" style="stop-color:#FFFFFF"/>
		<stop  offset="0.0638" style="stop-color:#FFFFFF;stop-opacity:0.9362"/>
		<stop  offset="0.9992" style="stop-color:#FFFFFF;stop-opacity:0"/>
	</linearGradient>
	<polygon style="opacity:0.64;fill:url(#SVGID_00000138537745527098519410000016968125106218653333_);" points="1920,353.65 
		1650.28,941.6 1705.84,965.17 1920,498.34 	"/>
	
		<linearGradient id="SVGID_00000052806618520216357720000007628571112944370615_" gradientUnits="userSpaceOnUse" x1="1907.1344" y1="-31.7638" x2="1629.2369" y2="877.1981">
		<stop  offset="0" style="stop-color:#FFFFFF"/>
		<stop  offset="0.9992" style="stop-color:#FFFFFF;stop-opacity:0"/>
	</linearGradient>
	<polygon style="opacity:0.64;fill:url(#SVGID_00000052806618520216357720000007628571112944370615_);" points="1920,57.81 
		1546.05,872.95 1601.61,896.52 1920,202.49 	"/>
	
		<linearGradient id="SVGID_00000052079113406452396670000015641621223213305017_" gradientUnits="userSpaceOnUse" x1="313.5282" y1="-105.1233" x2="31.0778" y2="818.7306">
		<stop  offset="0" style="stop-color:#FFFFFF"/>
		<stop  offset="0.1341" style="stop-color:#FFFFFF;stop-opacity:0.8594"/>
		<stop  offset="0.9543" style="stop-color:#FFFFFF;stop-opacity:0"/>
	</linearGradient>
	<polygon style="opacity:0.75;fill:url(#SVGID_00000052079113406452396670000015641621223213305017_);" points="-7.51,835.15 
		375.25,0.79 284.42,0.79 -7.51,637.16 	"/>
	
		<linearGradient id="SVGID_00000181055505584845103690000014989083044745687199_" gradientUnits="userSpaceOnUse" x1="216.7791" y1="-70.1374" x2="23.6952" y2="561.4114">
		<stop  offset="0" style="stop-color:#FFFFFF"/>
		<stop  offset="0.1471" style="stop-color:#FFFFFF;stop-opacity:0.8529"/>
		<stop  offset="1" style="stop-color:#FFFFFF;stop-opacity:0"/>
	</linearGradient>
	<polygon style="opacity:0.75;fill:url(#SVGID_00000181055505584845103690000014989083044745687199_);" points="-7.51,571.16 
		254.15,0.79 207.9,0.79 -7.51,470.35 	"/>
	
		<linearGradient id="SVGID_00000134936769878981646590000016133499734083295150_" gradientUnits="userSpaceOnUse" x1="1830.6282" y1="-110.1888" x2="1555.6093" y2="789.3578">
		<stop  offset="0" style="stop-color:#FFFFFF"/>
		<stop  offset="0.1185" style="stop-color:#FFFFFF;stop-opacity:0.8814"/>
		<stop  offset="0.9992" style="stop-color:#FFFFFF;stop-opacity:0"/>
	</linearGradient>
	<polygon style="opacity:0.64;fill:url(#SVGID_00000134936769878981646590000016133499734083295150_);" points="1794.69,0.79 
		1441.82,769.98 1543.71,813.2 1916.41,0.79 	"/>
</g>
</svg>
