<?xml version="1.0" encoding="UTF-8"?>
<svg id="Calque_1" data-name="Calque 1" xmlns="http://www.w3.org/2000/svg" xmlns:xlink="http://www.w3.org/1999/xlink" viewBox="0 0 1920 1080">
  <defs>
    <style>
      .cls-1 {
        fill: url(#Dégradé_sans_nom_78);
      }

      .cls-1, .cls-2, .cls-3, .cls-4, .cls-5 {
        opacity: .75;
      }

      .cls-6 {
        fill: url(#Dégradé_sans_nom_72);
      }

      .cls-6, .cls-7 {
        opacity: .6;
      }

      .cls-2 {
        fill: url(#Dégradé_sans_nom_81);
      }

      .cls-8 {
        fill: url(#Dégradé_sans_nom_83);
      }

      .cls-8, .cls-9, .cls-10, .cls-11 {
        opacity: .7;
      }

      .cls-3 {
        fill: url(#Dégradé_sans_nom_94);
      }

      .cls-12 {
        fill: #034871;
      }

      .cls-13 {
        fill: url(#Dégradé_sans_nom_85);
      }

      .cls-13, .cls-14, .cls-15 {
        opacity: .64;
      }

      .cls-9 {
        fill: url(#Dégradé_sans_nom_76);
      }

      .cls-16 {
        fill: url(#Dégradé_sans_nom_18);
      }

      .cls-14 {
        fill: url(#Dégradé_sans_nom_84);
      }

      .cls-17 {
        fill: url(#Dégradé_sans_nom_74);
        opacity: .65;
      }

      .cls-18 {
        fill: none;
        stroke: #234f72;
        stroke-miterlimit: 10;
        stroke-width: 2px;
      }

      .cls-19 {
        fill: #234f72;
      }

      .cls-7 {
        fill: url(#Dégradé_sans_nom_75);
      }

      .cls-4 {
        fill: url(#Dégradé_sans_nom_95);
      }

      .cls-5 {
        fill: url(#Dégradé_sans_nom_93);
      }

      .cls-20 {
        fill: #51608a;
      }

      .cls-10 {
        fill: url(#Dégradé_sans_nom_88);
      }

      .cls-21 {
        fill: #053851;
      }

      .cls-15 {
        fill: url(#Dégradé_sans_nom_86);
      }

      .cls-11 {
        fill: url(#Dégradé_sans_nom_73);
      }
    </style>
    <linearGradient id="Dégradé_sans_nom_18" data-name="Dégradé sans nom 18" x1="963.26" y1="-103.84" x2="963.26" y2="719.63" gradientUnits="userSpaceOnUse">
      <stop offset="0" stop-color="#cce0f4"/>
      <stop offset=".26" stop-color="#92b4cc"/>
      <stop offset=".53" stop-color="#608daa"/>
      <stop offset=".72" stop-color="#407595"/>
      <stop offset=".83" stop-color="#356d8d"/>
    </linearGradient>
    <linearGradient id="Dégradé_sans_nom_94" data-name="Dégradé sans nom 94" x1="8121.09" y1="-144.82" x2="7783.61" y2="959.03" gradientTransform="translate(9671.91) rotate(-180) scale(1 -1)" gradientUnits="userSpaceOnUse">
      <stop offset="0" stop-color="#fff"/>
      <stop offset=".01" stop-color="#fff" stop-opacity=".97"/>
      <stop offset=".09" stop-color="#fff" stop-opacity=".77"/>
      <stop offset=".17" stop-color="#fff" stop-opacity=".59"/>
      <stop offset=".26" stop-color="#fff" stop-opacity=".43"/>
      <stop offset=".35" stop-color="#fff" stop-opacity=".3"/>
      <stop offset=".44" stop-color="#fff" stop-opacity=".19"/>
      <stop offset=".55" stop-color="#fff" stop-opacity=".1"/>
      <stop offset=".66" stop-color="#fff" stop-opacity=".05"/>
      <stop offset=".8" stop-color="#fff" stop-opacity=".01"/>
      <stop offset="1" stop-color="#fff" stop-opacity="0"/>
    </linearGradient>
    <linearGradient id="Dégradé_sans_nom_93" data-name="Dégradé sans nom 93" x1="8257.32" y1="-139.36" x2="7933.91" y2="918.47" gradientTransform="translate(9671.91) rotate(-180) scale(1 -1)" gradientUnits="userSpaceOnUse">
      <stop offset="0" stop-color="#fff"/>
      <stop offset=".02" stop-color="#fff" stop-opacity=".94"/>
      <stop offset=".09" stop-color="#fff" stop-opacity=".75"/>
      <stop offset=".17" stop-color="#fff" stop-opacity=".57"/>
      <stop offset=".25" stop-color="#fff" stop-opacity=".42"/>
      <stop offset=".34" stop-color="#fff" stop-opacity=".29"/>
      <stop offset=".43" stop-color="#fff" stop-opacity=".18"/>
      <stop offset=".53" stop-color="#fff" stop-opacity=".1"/>
      <stop offset=".65" stop-color="#fff" stop-opacity=".04"/>
      <stop offset=".78" stop-color="#fff" stop-opacity=".01"/>
      <stop offset="1" stop-color="#fff" stop-opacity="0"/>
    </linearGradient>
    <linearGradient id="Dégradé_sans_nom_78" data-name="Dégradé sans nom 78" x1="8374.94" y1="-153.91" x2="8014.04" y2="1026.55" gradientTransform="translate(9671.91) rotate(-180) scale(1 -1)" gradientUnits="userSpaceOnUse">
      <stop offset="0" stop-color="#fff"/>
      <stop offset=".03" stop-color="#fff" stop-opacity=".87"/>
      <stop offset=".08" stop-color="#fff" stop-opacity=".69"/>
      <stop offset=".13" stop-color="#fff" stop-opacity=".52"/>
      <stop offset=".19" stop-color="#fff" stop-opacity=".38"/>
      <stop offset=".25" stop-color="#fff" stop-opacity=".26"/>
      <stop offset=".32" stop-color="#fff" stop-opacity=".17"/>
      <stop offset=".39" stop-color="#fff" stop-opacity=".09"/>
      <stop offset=".48" stop-color="#fff" stop-opacity=".04"/>
      <stop offset=".59" stop-color="#fff" stop-opacity="0"/>
      <stop offset=".81" stop-color="#fff" stop-opacity="0"/>
    </linearGradient>
    <linearGradient id="Dégradé_sans_nom_88" data-name="Dégradé sans nom 88" x1="8560.54" y1="-135.53" x2="8271.58" y2="809.6" gradientTransform="translate(9671.91) rotate(-180) scale(1 -1)" gradientUnits="userSpaceOnUse">
      <stop offset="0" stop-color="#fff"/>
      <stop offset=".02" stop-color="#fff" stop-opacity=".94"/>
      <stop offset=".1" stop-color="#fff" stop-opacity=".7"/>
      <stop offset=".19" stop-color="#fff" stop-opacity=".48"/>
      <stop offset=".27" stop-color="#fff" stop-opacity=".31"/>
      <stop offset=".35" stop-color="#fff" stop-opacity=".18"/>
      <stop offset=".42" stop-color="#fff" stop-opacity=".08"/>
      <stop offset=".49" stop-color="#fff" stop-opacity=".02"/>
      <stop offset=".55" stop-color="#fff" stop-opacity="0"/>
    </linearGradient>
    <linearGradient id="Dégradé_sans_nom_75" data-name="Dégradé sans nom 75" x1="9070.02" y1="-85.27" x2="8863.97" y2="588.66" gradientTransform="translate(9671.91) rotate(-180) scale(1 -1)" gradientUnits="userSpaceOnUse">
      <stop offset="0" stop-color="#fff"/>
      <stop offset=".04" stop-color="#fff" stop-opacity=".94"/>
      <stop offset=".29" stop-color="#fff" stop-opacity=".61"/>
      <stop offset=".5" stop-color="#fff" stop-opacity=".35"/>
      <stop offset=".68" stop-color="#fff" stop-opacity=".16"/>
      <stop offset=".81" stop-color="#fff" stop-opacity=".04"/>
      <stop offset=".89" stop-color="#fff" stop-opacity="0"/>
    </linearGradient>
    <linearGradient id="Dégradé_sans_nom_74" data-name="Dégradé sans nom 74" x1="8874.67" y1="-87.62" x2="8676.72" y2="559.86" gradientTransform="translate(9671.91) rotate(-180) scale(1 -1)" gradientUnits="userSpaceOnUse">
      <stop offset="0" stop-color="#fff"/>
      <stop offset=".26" stop-color="#fff" stop-opacity=".69"/>
      <stop offset=".53" stop-color="#fff" stop-opacity=".39"/>
      <stop offset=".75" stop-color="#fff" stop-opacity=".18"/>
      <stop offset=".91" stop-color="#fff" stop-opacity=".05"/>
      <stop offset="1" stop-color="#fff" stop-opacity="0"/>
    </linearGradient>
    <linearGradient id="Dégradé_sans_nom_72" data-name="Dégradé sans nom 72" x1="8977.22" y1="-91.65" x2="8768.89" y2="589.78" gradientTransform="translate(9671.91) rotate(-180) scale(1 -1)" gradientUnits="userSpaceOnUse">
      <stop offset="0" stop-color="#fff"/>
      <stop offset=".3" stop-color="#fff" stop-opacity=".52"/>
      <stop offset="1" stop-color="#fff" stop-opacity="0"/>
    </linearGradient>
    <linearGradient id="Dégradé_sans_nom_83" data-name="Dégradé sans nom 83" x1="9332.95" y1="-110.6" x2="9105.09" y2="634.69" gradientTransform="translate(9671.91) rotate(-180) scale(1 -1)" gradientUnits="userSpaceOnUse">
      <stop offset="0" stop-color="#fff"/>
      <stop offset="0" stop-color="#fff" stop-opacity="1"/>
      <stop offset=".07" stop-color="#fff" stop-opacity=".79"/>
      <stop offset=".13" stop-color="#fff" stop-opacity=".61"/>
      <stop offset=".21" stop-color="#fff" stop-opacity=".44"/>
      <stop offset=".28" stop-color="#fff" stop-opacity=".31"/>
      <stop offset=".36" stop-color="#fff" stop-opacity=".19"/>
      <stop offset=".44" stop-color="#fff" stop-opacity=".11"/>
      <stop offset=".53" stop-color="#fff" stop-opacity=".05"/>
      <stop offset=".64" stop-color="#fff" stop-opacity=".01"/>
      <stop offset=".79" stop-color="#fff" stop-opacity="0"/>
    </linearGradient>
    <linearGradient id="Dégradé_sans_nom_85" data-name="Dégradé sans nom 85" x1="9459.6" y1="-92.67" x2="9237.78" y2="632.87" gradientTransform="translate(9671.91) rotate(-180) scale(1 -1)" gradientUnits="userSpaceOnUse">
      <stop offset="0" stop-color="#fff"/>
      <stop offset=".06" stop-color="#fff" stop-opacity=".89"/>
      <stop offset=".21" stop-color="#fff" stop-opacity=".66"/>
      <stop offset=".36" stop-color="#fff" stop-opacity=".46"/>
      <stop offset=".5" stop-color="#fff" stop-opacity=".29"/>
      <stop offset=".64" stop-color="#fff" stop-opacity=".17"/>
      <stop offset=".77" stop-color="#fff" stop-opacity=".07"/>
      <stop offset=".89" stop-color="#fff" stop-opacity=".02"/>
      <stop offset="1" stop-color="#fff" stop-opacity="0"/>
    </linearGradient>
    <linearGradient id="Dégradé_sans_nom_73" data-name="Dégradé sans nom 73" x1="8736.64" y1="-117.95" x2="8477.82" y2="728.63" gradientTransform="translate(9671.91) rotate(-180) scale(1 -1)" gradientUnits="userSpaceOnUse">
      <stop offset="0" stop-color="#fff"/>
      <stop offset=".04" stop-color="#fff" stop-opacity=".87"/>
      <stop offset=".11" stop-color="#fff" stop-opacity=".67"/>
      <stop offset=".18" stop-color="#fff" stop-opacity=".49"/>
      <stop offset=".26" stop-color="#fff" stop-opacity=".34"/>
      <stop offset=".33" stop-color="#fff" stop-opacity=".22"/>
      <stop offset=".41" stop-color="#fff" stop-opacity=".12"/>
      <stop offset=".5" stop-color="#fff" stop-opacity=".05"/>
      <stop offset=".59" stop-color="#fff" stop-opacity=".01"/>
      <stop offset=".7" stop-color="#fff" stop-opacity="0"/>
    </linearGradient>
    <linearGradient id="Dégradé_sans_nom_76" data-name="Dégradé sans nom 76" x1="9156.14" y1="-92.2" x2="8949.63" y2="583.27" gradientTransform="translate(9671.91) rotate(-180) scale(1 -1)" gradientUnits="userSpaceOnUse">
      <stop offset="0" stop-color="#fff"/>
      <stop offset=".03" stop-color="#fff" stop-opacity=".92"/>
      <stop offset=".11" stop-color="#fff" stop-opacity=".71"/>
      <stop offset=".2" stop-color="#fff" stop-opacity=".52"/>
      <stop offset=".29" stop-color="#fff" stop-opacity=".36"/>
      <stop offset=".39" stop-color="#fff" stop-opacity=".23"/>
      <stop offset=".48" stop-color="#fff" stop-opacity=".13"/>
      <stop offset=".57" stop-color="#fff" stop-opacity=".06"/>
      <stop offset=".68" stop-color="#fff" stop-opacity=".01"/>
      <stop offset=".79" stop-color="#fff" stop-opacity="0"/>
    </linearGradient>
    <linearGradient id="Dégradé_sans_nom_86" data-name="Dégradé sans nom 86" x1="9635.21" y1="-38.11" x2="9404.66" y2="716.01" gradientTransform="translate(9671.91) rotate(-180) scale(1 -1)" gradientUnits="userSpaceOnUse">
      <stop offset="0" stop-color="#fff"/>
      <stop offset=".2" stop-color="#fff" stop-opacity=".74"/>
      <stop offset=".41" stop-color="#fff" stop-opacity=".48"/>
      <stop offset=".61" stop-color="#fff" stop-opacity=".27"/>
      <stop offset=".78" stop-color="#fff" stop-opacity=".12"/>
      <stop offset=".91" stop-color="#fff" stop-opacity=".03"/>
      <stop offset="1" stop-color="#fff" stop-opacity="0"/>
    </linearGradient>
    <linearGradient id="Dégradé_sans_nom_81" data-name="Dégradé sans nom 81" x1="8039.68" y1="-98.04" x2="7804.28" y2="671.92" gradientTransform="translate(9671.91) rotate(-180) scale(1 -1)" gradientUnits="userSpaceOnUse">
      <stop offset="0" stop-color="#fff"/>
      <stop offset=".03" stop-color="#fff" stop-opacity=".91"/>
      <stop offset=".09" stop-color="#fff" stop-opacity=".72"/>
      <stop offset=".16" stop-color="#fff" stop-opacity=".55"/>
      <stop offset=".24" stop-color="#fff" stop-opacity=".4"/>
      <stop offset=".31" stop-color="#fff" stop-opacity=".28"/>
      <stop offset=".4" stop-color="#fff" stop-opacity=".18"/>
      <stop offset=".49" stop-color="#fff" stop-opacity=".1"/>
      <stop offset=".6" stop-color="#fff" stop-opacity=".04"/>
      <stop offset=".73" stop-color="#fff" stop-opacity="0"/>
      <stop offset=".95" stop-color="#fff" stop-opacity="0"/>
    </linearGradient>
    <linearGradient id="Dégradé_sans_nom_95" data-name="Dégradé sans nom 95" x1="7948.21" y1="-65.77" x2="7787.29" y2="460.57" gradientTransform="translate(9671.91) rotate(-180) scale(1 -1)" gradientUnits="userSpaceOnUse">
      <stop offset="0" stop-color="#fff"/>
      <stop offset=".04" stop-color="#fff" stop-opacity=".84"/>
      <stop offset=".1" stop-color="#fff" stop-opacity=".67"/>
      <stop offset=".16" stop-color="#fff" stop-opacity=".51"/>
      <stop offset=".23" stop-color="#fff" stop-opacity=".37"/>
      <stop offset=".3" stop-color="#fff" stop-opacity=".25"/>
      <stop offset=".38" stop-color="#fff" stop-opacity=".16"/>
      <stop offset=".46" stop-color="#fff" stop-opacity=".09"/>
      <stop offset=".57" stop-color="#fff" stop-opacity=".04"/>
      <stop offset=".71" stop-color="#fff" stop-opacity="0"/>
      <stop offset="1" stop-color="#fff" stop-opacity="0"/>
    </linearGradient>
    <linearGradient id="Dégradé_sans_nom_84" data-name="Dégradé sans nom 84" x1="9563.59" y1="-104.62" x2="9334.38" y2="645.07" gradientTransform="translate(9671.91) rotate(-180) scale(1 -1)" gradientUnits="userSpaceOnUse">
      <stop offset="0" stop-color="#fff"/>
      <stop offset="0" stop-color="#fff" stop-opacity="1"/>
      <stop offset=".08" stop-color="#fff" stop-opacity=".79"/>
      <stop offset=".17" stop-color="#fff" stop-opacity=".61"/>
      <stop offset=".26" stop-color="#fff" stop-opacity=".44"/>
      <stop offset=".35" stop-color="#fff" stop-opacity=".31"/>
      <stop offset=".45" stop-color="#fff" stop-opacity=".19"/>
      <stop offset=".56" stop-color="#fff" stop-opacity=".11"/>
      <stop offset=".68" stop-color="#fff" stop-opacity=".05"/>
      <stop offset=".81" stop-color="#fff" stop-opacity=".01"/>
      <stop offset="1" stop-color="#fff" stop-opacity="0"/>
    </linearGradient>
  </defs>
  <g>
    <rect class="cls-19" x="-7.08" width="1940.69" height="1059.02"/>
    <rect class="cls-16" x="-7.08" width="1940.69" height="1059.02"/>
  </g>
  <polygon class="cls-3" points="1525.15 .17 2060 937.07 1969.25 968.01 1416.73 .17 1525.15 .17"/>
  <polygon class="cls-5" points="1392.6 .17 1904.41 896.71 1813.66 927.65 1284.19 .17 1392.6 .17"/>
  <polygon class="cls-1" points="1265.17 .17 1838.37 1004.24 1747.61 1035.17 1156.76 .17 1265.17 .17"/>
  <polygon class="cls-10" points="1141.02 .17 1584.4 776.83 1431.83 828.84 958.76 .17 1141.02 .17"/>
  <polygon class="cls-7" points="572.44 .17 902.87 578.98 867.44 591.06 530.11 .17 572.44 .17"/>
  <polygon class="cls-17" points="794.45 .17 1104.71 543.66 1033.69 567.87 709.6 .17 794.45 .17"/>
  <polygon class="cls-6" points="689.18 .17 1016.44 573.43 945.41 597.64 604.34 .17 689.18 .17"/>
  <polygon class="cls-8" points="379.15 .17 724.03 604.3 579.35 653.62 206.31 .17 379.15 .17"/>
  <polygon class="cls-13" points="184.45 .17 539.1 621.41 495.37 636.31 132.21 .17 184.45 .17"/>
  <polygon class="cls-11" points="946.49 .17 1347.96 703.42 1233.53 742.43 809.8 .17 946.49 .17"/>
  <polygon class="cls-9" points="516.35 .17 839.03 565.42 759.88 592.4 421.79 .17 516.35 .17"/>
  <polygon class="cls-15" points="-7.04 46.3 369.47 705.83 313.53 724.9 -7.04 163.37 -7.04 46.3"/>
  <polygon class="cls-2" points="1933.66 675.25 1548.27 .17 1639.72 .17 1933.66 515.05 1933.66 675.25"/>
  <polygon class="cls-4" points="1933.66 461.66 1670.21 .17 1716.77 .17 1933.66 380.09 1933.66 461.66"/>
  <polygon class="cls-14" points="119.13 .17 474.41 622.52 371.82 657.49 -3.43 .17 119.13 .17"/>
  <path class="cls-20" d="m-7.08,445.02s70.32.74,73.34,28.03c3.02,27.29-31.17,50.16,0,61.97,31.17,11.8,56.48,36.15,56.4,67.87-.09,31.72,6.21,86.31,25.18,90,18.97,3.69-1.62,137.59,111.74,109.37,113.36-28.22,183.84-132.24,236.08-109.37,52.24,22.87,160.62,9.59,165.26-22.13,4.63-31.72-24.02-80.02-24.02-80.02,0,0,17.39-10.36,24.53,4.59,7.14,14.95,77.66,24.54,100.22,97.57,22.56,73.03,59.76,98.11,84.9,54.59,25.14-43.52,56.31-41.31,56.31-41.31,0,0-7.04-6.96,0,13.86,7.04,20.82,50.28,103.44,135.75,59.91,85.47-43.52,208.14-82.62,236.3-50.9s288.59,58.28,345.9-11.07-50.28-133.48,0-158.95c50.28-25.47,170.06,94.44,226.81,66.58,56.75-27.87,86.01-34.86,86.01-34.86v497.79H-7.08V445.02Z"/>
  <path class="cls-19" d="m-2.06,593.84s101.49,37.81,101.49,121.17,66.01,85.57,66.01,85.57c0,0,47.61-127.62,89.84-120.24,42.23,7.38,61.36,80.42,117.91,93.88,56.55,13.45,94.76,97.55,151.07,90.17s127.92-30.98,122.78-63.81c-5.14-32.83,99.26-15.12,103.87,0s103.15,125.78,169.52,94.79,99.55-62.7,99.55-62.7c0,0,70.39-9.59,75.41,7.38,5.03,16.97-5.03,17.38,0,37.83,5.03,20.45,128.62,74.68,151.29,51.25,22.67-23.43,42.78-96.46,42.78-96.46,0,0,108.6-35.41,103.57,20.66-5.03,56.06,273.5,93.69,264.45,28.03-9.05-65.65-71.3-71.56-70.85-80.78.46-9.22,52.17,9.22,71.06,0,18.89-9.22,52.07,53.48,99.33,15.12,47.26-38.36,18.1-79.67,65.36-114.34,47.26-34.67,116.24-36.52,116.24-36.52v425.15H-2.06v-496.16Z"/>
  <g>
    <path class="cls-18" d="m414.58,799.11s27.74-19.18,24.73-41.31c-3.02-22.13-62.34-90.74-35.19-121.72,27.15-30.98-67.65-139.79-51.68-152.7s48.18-19.55,42.64-38.36c-5.54-18.81-38.72-11.43-37.72-23.24"/>
    <path class="cls-19" d="m406.37,691.75s-2.67.43-7.12.48c-1.26.01-2.66,0-4.19-.07-1.62-.07-3.38-.2-5.26-.4-9.84-1.08-19.89-10.67-19.89-11.41s15.34-.64,18.23,4.11c2.89,4.75,7.92,6.96,7.92,6.96l10.31.34Z"/>
    <path class="cls-19" d="m377.21,541.27s-2.67.43-7.12.48c-1.26.01-2.66,0-4.19-.07-1.62-.07-3.38-.2-5.26-.4-9.84-1.08-19.89-10.67-19.89-11.41s15.34-.64,18.23,4.11c2.89,4.75,7.92,6.96,7.92,6.96l10.31.34Z"/>
    <path class="cls-19" d="m403.32,597.28s2.74-.03,7.08-.73c1.23-.2,2.59-.45,4.05-.77,1.56-.34,3.23-.76,4.99-1.27,9.24-2.7,16.05-13.72,15.82-14.43s-15.13,1.94-16.47,7.04c-1.34,5.11-5.55,8.1-5.55,8.1l-9.93,2.06Z"/>
    <path class="cls-19" d="m377.18,547.12s2.74-.03,7.08-.73c1.23-.2,2.59-.45,4.05-.77,1.56-.34,3.23-.76,4.99-1.27,9.24-2.7,16.05-13.72,15.82-14.43s-15.13,1.94-16.47,7.04c-1.34,5.11-5.55,8.1-5.55,8.1l-9.93,2.06Z"/>
    <path class="cls-19" d="m366.12,525.72s2.74-.03,7.08-.73c1.23-.2,2.59-.45,4.05-.77,1.56-.34,3.23-.76,4.99-1.27,9.24-2.7,16.05-13.72,15.82-14.43s-15.13,1.94-16.47,7.04c-1.34,5.11-5.55,8.1-5.55,8.1l-9.93,2.06Z"/>
    <path class="cls-19" d="m354.05,499.17s2.74-.03,7.08-.73c1.23-.2,2.59-.45,4.05-.77,1.56-.34,3.23-.76,4.99-1.27,9.24-2.7,16.05-13.72,15.82-14.43s-15.13,1.94-16.47,7.04-5.55,8.1-5.55,8.1l-9.93,2.06Z"/>
    <path class="cls-19" d="m397.91,666.15s3.18.18,3.18-1.29,3.02-3.69,3.02-3.69c0,0,9.18-2.21,9.12,0s-.07,3.69-3.08,3.69-6.03-.74-7.04,0-2.01,1.48-3.02,1.48-2.17-.18-2.17-.18Z"/>
    <path class="cls-19" d="m396.52,581.63s8.59-2.35,12.61-6.77c4.02-4.43,14.08-12.54,16.09-9.59s0,10.33-4.02,11.8-16.53,4.7-18.32,4.56-6.36,0-6.36,0Z"/>
    <path class="cls-19" d="m420.46,719.12s-4.28,1.8-6.29,1.06-7.79-3.11-7.79-3.11c0,0-2.76,2.18,0,3.75,2.76,1.57,7.79.83,7.79.83l6.29-2.53Z"/>
    <path class="cls-19" d="m435.23,726.02c.95-.06,3.07.06,7.09-.67,4.02-.74,2.01-1.48,2.05-3.69s-6.08-1.48-9.09,0c-2.67,1.3-8.17,5.47-9.41,6.42-.16.12-.25.19-.25.19l9.61-2.25Z"/>
    <path class="cls-19" d="m409.2,611.44s-35.7,10.83-44.61,4.76c-8.92-6.07,1.84-9.52,6.02-8.07s19.55,4.3,24.02,4.44,14.57-1.13,14.57-1.13Z"/>
    <path class="cls-19" d="m391.72,568.89s-37.37,7.17-45.08.27c-7.71-6.9,3.59-9.25,7.46-7.39s18.58,6.21,22.98,6.8c4.4.59,14.64.33,14.64.33Z"/>
    <path class="cls-19" d="m359.55,510.61s-37.37,7.17-45.08.27c-7.71-6.9,3.59-9.25,7.46-7.39s18.58,6.21,22.98,6.8c4.4.59,14.64.33,14.64.33Z"/>
    <path class="cls-19" d="m356.52,481.9s-36.88-8.42-38.45-17.27,9.72-6.46,11.66-3.38c1.95,3.08,11.29,12.48,14.6,14.69,3.31,2.21,12.19,5.96,12.19,5.96Z"/>
    <path class="cls-19" d="m403.21,639.56s-33.49,9.49-40.74,6.15c-7.25-3.34,2.87-6.32,6.44-5.66s17.05,1.46,21.05,1.25c4-.21,13.25-1.73,13.25-1.73Z"/>
    <path class="cls-19" d="m407.25,627.69s21.72,7.23,28.2,1.3c6.48-5.93-.04-8.27-2.91-6.72s-13.13,5.05-16.03,5.47c-2.9.42-9.26-.05-9.26-.05Z"/>
    <path class="cls-19" d="m390.16,459.5s21.72,7.23,28.2,1.3-.04-8.27-2.91-6.72c-2.87,1.55-13.13,5.05-16.03,5.47s-9.26-.05-9.26-.05Z"/>
    <path class="cls-19" d="m377.47,431.36s11.71,3.9,15.2.7-.02-4.46-1.57-3.62-7.08,2.73-8.64,2.95-4.99-.03-4.99-.03Z"/>
    <path class="cls-19" d="m394.99,449.17s-21.72,7.23-28.2,1.3c-6.48-5.93.04-8.27,2.91-6.72s13.13,5.05,16.03,5.47,9.26-.05,9.26-.05Z"/>
  </g>
  <g>
    <path class="cls-18" d="m386.42,848.54s27.74-19.18,24.73-41.31c-3.02-22.13-62.34-90.74-35.19-121.72,27.15-30.98-67.65-139.79-51.68-152.7,15.98-12.91,48.18-19.55,42.64-38.36-5.54-18.81-38.72-11.43-37.72-23.24"/>
    <path class="cls-19" d="m378.22,741.18s-2.67.43-7.12.48c-1.26.01-2.66,0-4.19-.07-1.62-.07-3.38-.2-5.26-.4-9.84-1.08-19.89-10.67-19.89-11.41s15.34-.64,18.23,4.11c2.89,4.75,7.92,6.96,7.92,6.96l10.31.34Z"/>
    <path class="cls-19" d="m349.06,590.69s-2.67.43-7.12.48c-1.26.01-2.66,0-4.19-.07-1.62-.07-3.38-.2-5.26-.4-9.84-1.08-19.89-10.67-19.89-11.41s15.34-.64,18.23,4.11c2.89,4.75,7.92,6.96,7.92,6.96l10.31.34Z"/>
    <path class="cls-19" d="m375.17,646.7s2.74-.03,7.08-.73c1.23-.2,2.59-.45,4.05-.77,1.56-.34,3.23-.76,4.99-1.27,9.24-2.7,16.05-13.72,15.82-14.43s-15.13,1.94-16.47,7.04-5.55,8.1-5.55,8.1l-9.93,2.06Z"/>
    <path class="cls-19" d="m349.02,596.54s2.74-.03,7.08-.73c1.23-.2,2.59-.45,4.05-.77,1.56-.34,3.23-.76,4.99-1.27,9.24-2.7,16.05-13.72,15.82-14.43s-15.13,1.94-16.47,7.04c-1.34,5.11-5.55,8.1-5.55,8.1l-9.93,2.06Z"/>
    <path class="cls-19" d="m337.96,575.15s2.74-.03,7.08-.73c1.23-.2,2.59-.45,4.05-.77,1.56-.34,3.23-.76,4.99-1.27,9.24-2.7,16.05-13.72,15.82-14.43s-15.13,1.94-16.47,7.04c-1.34,5.11-5.55,8.1-5.55,8.1l-9.93,2.06Z"/>
    <path class="cls-19" d="m325.9,548.59s2.74-.03,7.08-.73c1.23-.2,2.59-.45,4.05-.77,1.56-.34,3.23-.76,4.99-1.27,9.24-2.7,16.05-13.72,15.82-14.43s-15.13,1.94-16.47,7.04-5.55,8.1-5.55,8.1l-9.93,2.06Z"/>
    <path class="cls-19" d="m369.76,715.57s3.18.18,3.18-1.29,3.02-3.69,3.02-3.69c0,0,9.18-2.21,9.12,0s-.07,3.69-3.08,3.69-6.03-.74-7.04,0-2.01,1.48-3.02,1.48-2.17-.18-2.17-.18Z"/>
    <path class="cls-19" d="m368.37,631.06s8.59-2.35,12.61-6.77c4.02-4.43,14.08-12.54,16.09-9.59s0,10.33-4.02,11.8-16.53,4.7-18.32,4.56c-1.79-.14-6.36,0-6.36,0Z"/>
    <path class="cls-19" d="m392.3,768.55s-4.28,1.8-6.29,1.06-7.79-3.11-7.79-3.11c0,0-2.76,2.18,0,3.75,2.76,1.57,7.79.83,7.79.83l6.29-2.53Z"/>
    <path class="cls-19" d="m407.07,775.44c.95-.06,3.07.06,7.09-.67s2.01-1.48,2.05-3.69-6.08-1.48-9.09,0c-2.67,1.3-8.17,5.47-9.41,6.42-.16.12-.25.19-.25.19l9.61-2.25Z"/>
    <path class="cls-19" d="m381.05,660.87s-35.7,10.83-44.61,4.76,1.84-9.52,6.02-8.07c4.18,1.45,19.55,4.3,24.02,4.44,4.47.15,14.57-1.13,14.57-1.13Z"/>
    <path class="cls-19" d="m363.57,618.31s-37.37,7.17-45.08.27c-7.71-6.9,3.59-9.25,7.46-7.39s18.58,6.21,22.98,6.8c4.4.59,14.64.33,14.64.33Z"/>
    <path class="cls-19" d="m331.39,560.04s-37.37,7.17-45.08.27c-7.71-6.9,3.59-9.25,7.46-7.39s18.58,6.21,22.98,6.8c4.4.59,14.64.33,14.64.33Z"/>
    <path class="cls-19" d="m328.36,531.32s-36.88-8.42-38.45-17.27,9.72-6.46,11.66-3.38c1.95,3.08,11.29,12.48,14.6,14.69,3.31,2.21,12.19,5.96,12.19,5.96Z"/>
    <path class="cls-19" d="m375.05,688.98s-33.49,9.49-40.74,6.15c-7.25-3.34,2.87-6.32,6.44-5.66s17.05,1.46,21.05,1.25c4-.21,13.25-1.73,13.25-1.73Z"/>
    <path class="cls-19" d="m379.1,677.12s21.72,7.23,28.2,1.3c6.48-5.93-.04-8.27-2.91-6.72-2.87,1.55-13.13,5.05-16.03,5.47s-9.26-.05-9.26-.05Z"/>
    <path class="cls-19" d="m362.01,508.92s21.72,7.23,28.2,1.3c6.48-5.93-.04-8.27-2.91-6.72-2.87,1.55-13.13,5.05-16.03,5.47s-9.26-.05-9.26-.05Z"/>
    <path class="cls-19" d="m349.32,480.78s11.71,3.9,15.2.7-.02-4.46-1.57-3.62-7.08,2.73-8.64,2.95-4.99-.03-4.99-.03Z"/>
    <path class="cls-19" d="m366.83,498.59s-21.72,7.23-28.2,1.3.04-8.27,2.91-6.72,13.13,5.05,16.03,5.47,9.26-.05,9.26-.05Z"/>
  </g>
  <g>
    <path class="cls-18" d="m1748.69,889.35s-30.61-16.67-31.15-38.9c-.53-22.24,47.44-95.47,15.53-123.9-31.91-28.44,44.89-144.64,26.96-156.09-17.93-11.45-50.96-15.28-48.46-34.44,2.5-19.16,36.63-14.68,33.75-26.32"/>
    <path class="cls-19" d="m1739.71,782.03s2.72.2,7.14-.14c1.25-.1,2.64-.23,4.15-.43,1.6-.21,3.33-.49,5.16-.85,9.6-1.92,18.05-12.31,17.94-13.04s-15.33.68-17.45,5.64c-2.11,4.96-6.75,7.59-6.75,7.59l-10.18,1.23Z"/>
    <path class="cls-19" d="m1744.66,630.07s2.72.2,7.14-.14c1.25-.1,2.64-.23,4.15-.43,1.6-.21,3.33-.49,5.16-.85,9.6-1.92,18.05-12.31,17.94-13.04-.12-.73-15.33.68-17.45,5.64-2.11,4.96-6.75,7.59-6.75,7.59l-10.18,1.23Z"/>
    <path class="cls-19" d="m1727.67,687.94s-2.72.21-7.15-.11c-1.25-.09-2.65-.22-4.15-.42-1.6-.2-3.33-.48-5.16-.84-9.61-1.88-18.13-12.24-18.02-12.98s15.34.63,17.48,5.58c2.14,4.96,6.8,7.57,6.8,7.57l10.19,1.19Z"/>
    <path class="cls-19" d="m1745.63,635.88s-2.72.21-7.15-.11c-1.25-.09-2.65-.22-4.15-.42-1.6-.2-3.33-.48-5.16-.84-9.61-1.88-18.13-12.24-18.02-12.98s15.34.63,17.48,5.58c2.14,4.96,6.8,7.57,6.8,7.57l10.19,1.19Z"/>
    <path class="cls-19" d="m1753.2,613.68s-2.72.21-7.15-.11c-1.25-.09-2.65-.22-4.15-.42-1.6-.2-3.33-.48-5.16-.84-9.61-1.88-18.13-12.24-18.02-12.98s15.34.63,17.48,5.58c2.14,4.96,6.8,7.57,6.8,7.57l10.19,1.19Z"/>
    <path class="cls-19" d="m1760.95,586.27s-2.72.21-7.15-.11c-1.25-.09-2.65-.22-4.15-.42-1.6-.2-3.33-.48-5.16-.84-9.61-1.88-18.13-12.24-18.02-12.98s15.34.63,17.48,5.58c2.14,4.96,6.8,7.57,6.8,7.57l10.19,1.19Z"/>
    <path class="cls-19" d="m1744.03,755.87s-3.13.46-3.36-1.01-3.58-3.4-3.58-3.4c0,0-9.47-1.41-9.05.78s.65,3.66,3.65,3.4c3-.26,5.87-1.25,6.99-.6s2.23,1.29,3.23,1.21,2.13-.37,2.13-.37Z"/>
    <path class="cls-19" d="m1731.93,671.82s-8.91-1.59-13.61-5.64c-4.7-4.05-15.98-11.25-17.51-8.14-1.53,3.1,1.65,10.26,5.88,11.38,4.23,1.12,17.16,3.25,18.92,2.96,1.76-.29,6.32-.55,6.32-.55Z"/>
    <path class="cls-19" d="m1730.09,810.42s4.54,1.42,6.42.51c1.88-.91,7.24-3.76,7.24-3.76,0,0,3.09,1.93.6,3.73-2.49,1.8-7.6,1.5-7.6,1.5l-6.65-1.98Z"/>
    <path class="cls-19" d="m1716.52,818.53c-.96.02-3.04.33-7.15-.06-4.11-.39-2.23-1.29-2.63-3.49-.4-2.19,5.8-1.99,9.03-.78,2.86,1.07,8.99,4.73,10.37,5.57.18.11.28.17.28.17l-9.91-1.41Z"/>
    <path class="cls-19" d="m1724.09,702.51s37.18,7.69,45.06.89-3.35-9.3-7.27-7.5c-3.92,1.8-18.73,5.95-23.15,6.48-4.41.53-14.65.13-14.65.13Z"/>
    <path class="cls-19" d="m1734.66,658.75s38.26,3.91,44.81-3.6c6.56-7.52-5.04-8.88-8.59-6.7-3.55,2.18-17.46,7.76-21.73,8.72-4.27.96-14.49,1.58-14.49,1.58Z"/>
    <path class="cls-19" d="m1757.32,598.11s38.26,3.91,44.81-3.6c6.56-7.52-5.04-8.88-8.59-6.7-3.55,2.18-17.46,7.76-21.73,8.72-4.27.96-14.49,1.58-14.49,1.58Z"/>
    <path class="cls-19" d="m1755.74,569.33s35.29-11.53,35.43-20.45c.14-8.92-10.68-5.58-12.12-2.35-1.44,3.22-9.22,13.36-12.15,15.84-2.93,2.48-11.15,6.97-11.15,6.97Z"/>
    <path class="cls-19" d="m1734.53,729.92s34.78,6.55,41.44,2.61c6.67-3.94-3.86-6.03-7.3-5.07-3.45.96-16.7,2.91-20.7,3.05-4.01.13-13.44-.58-13.44-.58Z"/>
    <path class="cls-19" d="m1728.62,718.48s-20.41,9.04-27.8,3.71c-7.38-5.33-1.28-8.22,1.82-6.92s13.84,3.89,16.79,4.06c2.95.17,9.19-.85,9.19-.85Z"/>
    <path class="cls-19" d="m1718.76,549.98s-20.41,9.04-27.8,3.71c-7.38-5.33-1.28-8.22,1.82-6.92,3.1,1.29,13.84,3.89,16.79,4.06s9.19-.85,9.19-.85Z"/>
    <path class="cls-19" d="m1726.87,520.94s-11.01,4.87-14.99,2c-3.98-2.87-.69-4.43.98-3.73,1.67.7,7.47,2.1,9.05,2.19s4.95-.46,4.95-.46Z"/>
    <path class="cls-19" d="m1712.32,540.13s22.72,5.31,28.21-1.13c5.49-6.44-1.36-8.21-3.96-6.42-2.6,1.79-12.23,6.15-15.04,6.81-2.81.66-9.2.74-9.2.74Z"/>
  </g>
  <g>
    <path class="cls-18" d="m1784.54,936.02s-30.61-16.67-31.15-38.9c-.53-22.24,47.44-95.47,15.53-123.9-31.91-28.44,44.89-144.64,26.96-156.09-17.93-11.45-50.96-15.28-48.46-34.44,2.5-19.16,36.63-14.68,33.75-26.32"/>
    <path class="cls-19" d="m1775.56,828.7s2.72.2,7.14-.14c1.25-.1,2.64-.23,4.15-.43,1.6-.21,3.33-.49,5.16-.85,9.6-1.92,18.05-12.31,17.94-13.04s-15.33.68-17.45,5.64c-2.11,4.96-6.75,7.59-6.75,7.59l-10.18,1.23Z"/>
    <path class="cls-19" d="m1780.51,676.74s2.72.2,7.14-.14c1.25-.1,2.64-.23,4.15-.43,1.6-.21,3.33-.49,5.16-.85,9.6-1.92,18.05-12.31,17.94-13.04s-15.33.68-17.45,5.64-6.75,7.59-6.75,7.59l-10.18,1.23Z"/>
    <path class="cls-19" d="m1763.52,734.61s-2.72.21-7.15-.11c-1.25-.09-2.65-.22-4.15-.42-1.6-.2-3.33-.48-5.16-.84-9.61-1.88-18.13-12.24-18.02-12.98s15.34.63,17.48,5.58c2.14,4.96,6.8,7.57,6.8,7.57l10.19,1.19Z"/>
    <path class="cls-19" d="m1781.48,682.54s-2.72.21-7.15-.11c-1.25-.09-2.65-.22-4.15-.42-1.6-.2-3.33-.48-5.16-.84-9.61-1.88-18.13-12.24-18.02-12.98s15.34.63,17.48,5.58c2.14,4.96,6.8,7.57,6.8,7.57l10.19,1.19Z"/>
    <path class="cls-19" d="m1789.05,660.35s-2.72.21-7.15-.11c-1.25-.09-2.65-.22-4.15-.42-1.6-.2-3.33-.48-5.16-.84-9.61-1.88-18.13-12.24-18.02-12.98s15.34.63,17.48,5.58c2.14,4.96,6.8,7.57,6.8,7.57l10.19,1.19Z"/>
    <path class="cls-19" d="m1796.79,632.94s-2.72.21-7.15-.11c-1.25-.09-2.65-.22-4.15-.42-1.6-.2-3.33-.48-5.16-.84-9.61-1.88-18.13-12.24-18.02-12.98s15.34.63,17.48,5.58c2.14,4.96,6.8,7.57,6.8,7.57l10.19,1.19Z"/>
    <path class="cls-19" d="m1779.87,802.54s-3.13.46-3.36-1.01-3.58-3.4-3.58-3.4c0,0-9.47-1.41-9.05.78.42,2.19.65,3.66,3.65,3.4,3-.26,5.87-1.25,6.99-.6s2.23,1.29,3.23,1.21,2.13-.37,2.13-.37Z"/>
    <path class="cls-19" d="m1767.77,718.48s-8.91-1.59-13.61-5.64c-4.7-4.05-15.98-11.25-17.51-8.14-1.53,3.1,1.65,10.26,5.88,11.38s17.16,3.25,18.92,2.96c1.76-.29,6.32-.55,6.32-.55Z"/>
    <path class="cls-19" d="m1765.94,857.08s4.54,1.42,6.42.51c1.88-.91,7.24-3.76,7.24-3.76,0,0,3.09,1.93.6,3.73-2.49,1.8-7.6,1.5-7.6,1.5l-6.65-1.98Z"/>
    <path class="cls-19" d="m1752.37,865.2c-.96.02-3.04.33-7.15-.06s-2.23-1.29-2.63-3.49c-.4-2.19,5.8-1.99,9.03-.78,2.86,1.07,8.99,4.73,10.37,5.57.18.11.28.17.28.17l-9.91-1.41Z"/>
    <path class="cls-19" d="m1759.93,749.18s37.18,7.69,45.06.89-3.35-9.3-7.27-7.5-18.73,5.95-23.15,6.48-14.65.13-14.65.13Z"/>
    <path class="cls-19" d="m1770.5,705.42s38.26,3.91,44.81-3.6c6.56-7.52-5.04-8.88-8.59-6.7-3.55,2.18-17.46,7.76-21.73,8.72-4.27.96-14.49,1.58-14.49,1.58Z"/>
    <path class="cls-19" d="m1793.16,644.78s38.26,3.91,44.81-3.6c6.56-7.52-5.04-8.88-8.59-6.7s-17.46,7.76-21.73,8.72c-4.27.96-14.49,1.58-14.49,1.58Z"/>
    <path class="cls-19" d="m1791.59,616s35.29-11.53,35.43-20.45c.14-8.92-10.68-5.58-12.12-2.35-1.44,3.22-9.22,13.36-12.15,15.84s-11.15,6.97-11.15,6.97Z"/>
    <path class="cls-19" d="m1770.37,776.59s34.78,6.55,41.44,2.61c6.67-3.94-3.86-6.03-7.3-5.07s-16.7,2.91-20.7,3.05-13.44-.58-13.44-.58Z"/>
    <path class="cls-19" d="m1764.46,765.15s-20.41,9.04-27.8,3.71c-7.38-5.33-1.28-8.22,1.82-6.92,3.1,1.29,13.84,3.89,16.79,4.06,2.95.17,9.19-.85,9.19-.85Z"/>
    <path class="cls-19" d="m1754.6,596.64s-20.41,9.04-27.8,3.71c-7.38-5.33-1.28-8.22,1.82-6.92,3.1,1.29,13.84,3.89,16.79,4.06,2.95.17,9.19-.85,9.19-.85Z"/>
    <path class="cls-19" d="m1762.72,567.61s-11.01,4.87-14.99,2c-3.98-2.87-.69-4.43.98-3.73s7.47,2.1,9.05,2.19,4.95-.46,4.95-.46Z"/>
    <path class="cls-19" d="m1748.16,586.8s22.72,5.31,28.21-1.13c5.49-6.44-1.36-8.21-3.96-6.42-2.6,1.79-12.23,6.15-15.04,6.81-2.81.66-9.2.74-9.2.74Z"/>
  </g>
  <g>
    <path class="cls-18" d="m1743.74,1035.34s-33.88-12.82-39.3-34.71,25.82-99.83-11.93-124.12c-37.74-24.29,12.48-148.06-7.73-157.23-20.21-9.18-53.66-9.04-55.4-28.25-1.75-19.2,32.92-18.83,27.52-29.97"/>
    <path class="cls-19" d="m1711.27,930.48s2.73-.13,7.02-.98c1.22-.24,2.56-.54,4-.92,1.53-.4,3.18-.88,4.9-1.45,9.05-3.03,15.11-14.28,14.83-14.99-.28-.71-14.98,2.49-15.98,7.63-.99,5.15-4.99,8.29-4.99,8.29l-9.78,2.42Z"/>
    <path class="cls-19" d="m1682.73,779.93s2.73-.13,7.02-.98c1.22-.24,2.56-.54,4-.92,1.53-.4,3.18-.88,4.9-1.45,9.05-3.03,15.11-14.28,14.83-14.99s-14.98,2.49-15.98,7.63c-.99,5.15-4.99,8.29-4.99,8.29l-9.78,2.42Z"/>
    <path class="cls-19" d="m1678.69,839.05s-2.64.53-7.08.73c-1.26.06-2.66.09-4.19.08-1.63-.01-3.39-.08-5.28-.21-9.9-.72-20.59-9.94-20.64-10.67s15.27-1.2,18.48,3.44c3.21,4.64,8.38,6.66,8.38,6.66l10.32-.03Z"/>
    <path class="cls-19" d="m1684.96,785.55s-2.64.53-7.08.73c-1.26.06-2.66.09-4.19.08-1.63-.01-3.39-.08-5.28-.21-9.9-.72-20.59-9.94-20.64-10.67s15.27-1.2,18.48,3.44c3.21,4.64,8.38,6.66,8.38,6.66l10.32-.03Z"/>
    <path class="cls-19" d="m1687.55,762.75s-2.64.53-7.08.73c-1.26.06-2.66.09-4.19.08-1.63-.01-3.39-.08-5.28-.21-9.9-.72-20.59-9.94-20.64-10.67s15.27-1.2,18.48,3.44c3.21,4.64,8.38,6.66,8.38,6.66l10.32-.03Z"/>
    <path class="cls-19" d="m1689.17,734.78s-2.64.53-7.08.73c-1.26.06-2.66.09-4.19.08-1.63-.01-3.39-.08-5.28-.21-9.9-.72-20.59-9.94-20.64-10.67s15.27-1.2,18.48,3.44c3.21,4.64,8.38,6.66,8.38,6.66l10.32-.03Z"/>
    <path class="cls-19" d="m1709.77,904.16s-2.99.82-3.54-.6c-.55-1.42-4.29-2.94-4.29-2.94,0,0-9.66-.27-8.76,1.84.89,2.11,1.45,3.53,4.35,2.92,2.9-.61,5.52-1.93,6.77-1.42s2.49,1.01,3.45.81,2.02-.62,2.02-.62Z"/>
    <path class="cls-19" d="m1679.34,822.64s-9.14-.52-14.67-3.96c-5.53-3.44-18.25-9.21-19.07-5.96-.82,3.24,3.88,9.93,8.3,10.53s17.65,1.17,19.32.68c1.67-.49,6.12-1.29,6.12-1.29Z"/>
    <path class="cls-19" d="m1708.02,959.64s4.79.86,6.45-.25c1.66-1.12,6.32-4.57,6.32-4.57,0,0,3.48,1.54,1.41,3.61s-7.18,2.38-7.18,2.38l-7-1.16Z"/>
    <path class="cls-19" d="m1696.42,969.26c-.94.13-2.93.68-7.07.79-4.14.1-2.49-1.01-3.36-3.13s5.29-2.65,8.74-1.84c3.05.71,9.91,3.61,11.46,4.27.2.09.32.14.32.14l-10.09-.22Z"/>
    <path class="cls-19" d="m1678.36,853.86s38.38,3.19,44.67-4.45-5.35-8.78-8.82-6.54c-3.47,2.24-17.18,8.09-21.42,9.13s-14.43,1.86-14.43,1.86Z"/>
    <path class="cls-19" d="m1679.16,809.42s38.62-.67,43.43-8.86c4.82-8.2-6.93-8.17-9.95-5.6s-15.52,9.72-19.53,11.18-13.95,3.28-13.95,3.28Z"/>
    <path class="cls-19" d="m1688.18,746.89s38.62-.67,43.43-8.86c4.82-8.2-6.93-8.17-9.95-5.6-3.02,2.57-15.52,9.72-19.53,11.18s-13.95,3.28-13.95,3.28Z"/>
    <path class="cls-19" d="m1680.3,718.68s32.29-15.56,30.46-24.38c-1.82-8.82-11.77-4.24-12.48-.89-.71,3.35-6.16,14.28-8.51,17.07s-9.47,8.2-9.47,8.2Z"/>
    <path class="cls-19" d="m1694.69,879.67s35.76,2.34,41.47-2.34c5.71-4.68-5.13-5.5-8.32-4.14-3.19,1.36-15.84,4.85-19.76,5.46s-13.39,1.02-13.39,1.02Z"/>
    <path class="cls-19" d="m1686.34,869.08s-18.16,11.34-26.61,6.95c-8.46-4.38-3.07-7.96.27-7.05,3.34.91,14.52,2.2,17.46,2.02s8.88-1.92,8.88-1.92Z"/>
    <path class="cls-19" d="m1639.55,703.95s-18.16,11.34-26.61,6.95c-8.46-4.38-3.07-7.96.27-7.05,3.34.91,14.52,2.2,17.46,2.02s8.88-1.92,8.88-1.92Z"/>
    <path class="cls-19" d="m1641.16,674.34s-9.79,6.11-14.35,3.75c-4.56-2.36-1.66-4.29.15-3.8s7.83,1.19,9.42,1.09,4.79-1.04,4.79-1.04Z"/>
    <path class="cls-19" d="m1631.02,695s23.59,2.55,27.59-4.46c4-7.01-3.15-7.94-5.32-5.87-2.18,2.07-10.72,7.51-13.35,8.5s-8.92,1.82-8.92,1.82Z"/>
  </g>
  <path class="cls-12" d="m-7.08,506.93s58.65,26.13,47.89,64.73c-10.75,38.61-31.8,147-23.29,155.14,8.51,8.14,69.85,213.95,114.09,232.39,44.24,18.44,222.08,46.06,306.61,9.38,84.53-36.68,220.15-51.11,320.26,0,100.12,51.11,433.86,22.6,446.98,18.04,13.12-4.56,118.91-12.67,232.93-3.82,114.02,8.85,233.15,42.71,268.1-14.79,34.95-57.5,113.28-103.35,133.44-162.31,20.16-58.96,23.09-155.56,58.33-204.27,35.24-48.7,35.34,0,35.34,0v485.62H-7.08V506.93Z"/>
  <path class="cls-21" d="m-7.08,1011.5s66.56-32.52,154.92,0c88.35,32.52,481.51,58.34,525.76,50.96,44.24-7.38,349.92-32.46,361.99-16.23,12.07,16.23,522.09,24.67,529.52,17.5,7.43-7.17,223.95-4.72,223.95-4.72,0,0,91.17.5,96.2-6.14,5.03-6.64,48.36-.96,48.36-.96v36.61H-7.08v-77.02Z"/>
  <path class="cls-21" d="m65.97,997.06s-27.87-35.66-27.87-60,18.82-41.47,13.94-67.58c-4.89-26.11-15.07-88.8-8.47-100.61,6.6-11.81,16.38-20.92,8.47-33.33-7.9-12.41-13.94-33.2-13.94-33.2,0,0,36.11,17.58,36.16,33.2s-13.86,33.28-5.9,42.15c7.96,8.88,11.89,86.07,5.9,94.31-5.99,8.25-8,37.76-5.99,39.97s2.01,21.39-3.02,31.72,20.11,61.23,20.11,61.23l-19.39-7.86Z"/>
  <path class="cls-21" d="m69.88,1006.44s-12.47-17.16,0-29.25c12.47-12.09,13.28-23.91,12.87-36.81s-13.52-31.99.08-41.99c13.59-10.01,19.63-21.81,14.6-31.4-5.03-9.59-9.49-18.42-9.49-18.42,0,0,19.54,15.47,20.55,22.11s1.01,21.39-7.04,29.51c-8.04,8.11-11.1,22.93-9.57,27.32,1.53,4.4,16.63,23.38,7.07,33.81-9.56,10.42-15.59,14.85-16.6,25.18s-.7,26.56-.7,26.56l-11.77-6.6Z"/>
  <path class="cls-21" d="m111.9,1007.91s-16-27.35-6.11-48.07c9.88-20.72,8.23-40.19,5.12-61.37-3.1-21.18-20.14-51.64-8.7-69.02,11.44-17.37,14.98-37.18,7.97-52.59s-13.3-29.62-13.3-29.62c0,0,22.69,24.09,25.08,34.93,2.39,10.84,5.47,35.09-.84,48.97-6.31,13.88-6.26,38.43-3.82,45.55,2.44,7.12,21.44,37.29,14.1,55.08-7.34,17.78-12.42,25.47-11.26,42.51,1.16,17.04,4.85,43.69,4.85,43.69l-13.1-10.05Z"/>
  <path class="cls-21" d="m76.06,1064.44s-37.03-26.85-37.47-40.05c-.44-13.2-2.8-28.55-5.67-38.2-2.87-9.65-8.23-35.12-6.53-44.37,1.7-9.25,20.79-51.24,4.72-69.43-16.07-18.2-29.6-34.71-23.81-48.43s32.96-24.08,8.59-46.18c-24.37-22.1-30.75-34.83-30.75-34.83,0,0,53.11,33.97,50.53,47.07s-24.66,24.54-16.25,36.68c8.4,12.14,24.37,28.71,27.93,42.68,3.56,13.96,6.52,54.54,2.83,70.27-3.7,15.74-.98,75.08,6.57,85.52,7.55,10.43,33.79,38.14,33.79,38.14l-14.47,1.15Z"/>
  <path class="cls-21" d="m1426.36,971.47c-6.06,11.83,7.1,25.83,22.75,41.25,15.66,15.42-4.28,51.63-6.17,59.57-.82,3.46-.37,9.55.62,16h21.11c.26-7.78.96-14.38,2.07-18.13,4.02-13.53,1.91-48.28-1.34-60.21-3.26-11.93-18.86-25.95-26.99-36.26-8.13-10.31,14.14-20.36,17-31.63,2.85-11.26-49.46-39.78-49.46-39.78,0,0,6.11,10.84,29.97,29.5,23.86,18.67-3.48,27.85-9.55,39.68Z"/>
  <path class="cls-21" d="m1477.44,1006.63c-6.6,8.18,3.59,51.61,8.47,69.7,1.16,4.29.98,8.22.04,11.96h17.3c1.12-4.26,2.75-8.17,4.88-10.2,5.99-5.71,2.05-59.19-5.9-65.34-7.96-6.15,5.95-18.38,5.9-29.2-.04-10.82-36.16-23-36.16-23,0,0,6.03,14.4,13.94,23,7.9,8.6-1.87,14.91-8.47,23.09Z"/>
  <path class="cls-21" d="m1532.82,992.77c-11.49,16.98,5.46,46.71,8.5,67.39,1.42,9.64,2.52,18.92,2.29,28.13h19.37c3.21-17.56-12.98-43.01-15.21-49.41-2.42-6.95-2.4-30.93,3.96-44.5,6.35-13.57,3.34-37.24.99-47.83s-24.97-34.07-24.97-34.07c0,0,6.24,13.86,13.21,28.91,6.96,15.05,3.37,34.4-8.13,51.38Z"/>
  <path class="cls-21" d="m1523.84,1088.29c.37-6.68,3.78-17.78,10.45-24.51,8.48-8.55,8.48-24.09,7.42-31.09-1.06-6.99-21.65-23.29-21.65-23.29,0,0,4.7,9.3,9.99,19.41,5.3,10.1-1.06,22.54-15.38,33.08-8.76,6.45-6.99,16.48-4.2,26.4h13.37Z"/>
  <path class="cls-21" d="m1772.39,1066.24s-17.65-4.71-17.65-10.59-11.67-7.27-13.05-13.05c-1.39-5.78-19.04-5.78-19.04-17.56s-30.49-9.42-27.28-20.01c3.21-10.59-10.57-11.98-11.7-18.94-1.13-6.96-9.78-8-8.67-17.49,1.12-9.49-28.48-19.33-20.9-19.71,7.58-.38-5.03-8.21-2.74-11.94s4.86-8.24,8.39-2.46c3.53,5.78,4.72,9.15,8.14,11.58,3.42,2.44,6.63,14.21,11.44,15.39,4.81,1.18-.92,13.05,5.16,14.18,6.07,1.13,7.19,18.58,11.45,16.92s2.38,8.88,8.93,9.49c6.55.61,12.97,13.56,17.79,13.56s3.25,7.68,9.65,8.55c6.4.87,5.96,4.47,9.39,7.38,3.43,2.91,6.64,12.33,11.45,12.33s5.16,6.35,6.59,6.7,12.66,15.66,12.66,15.66Z"/>
  <path class="cls-21" d="m1769.45,1060.55s-25.01-13.86-21.33-20.1-13.94-13.56-12.52-20.39c1.42-6.83-26.53-15.69-19.18-28.17,7.35-12.48-42.4-25.29-30.7-34.92,11.7-9.62-9.26-18.01-6.7-25.96,2.55-7.95-10.5-13.4-2.8-22.89,7.69-9.5-33.03-34.8-20.8-31.39,12.24,3.41-2.84-11.23,3.13-14.04s12.84-6.3,14.82,1.61c1.98,7.91,1.76,12.07,5.65,16.37,3.89,4.3,1.62,18.4,8.5,22.06,6.89,3.67-9.6,13.38-.69,17.62,8.92,4.24-.22,23.31,7.56,23.68,7.78.37-1.78,10.61,8.22,14.55,9.99,3.94,12.07,20.89,19.69,23.31,7.62,2.42.35,9.77,9.94,13.91,9.59,4.14,6.65,7.73,10.26,12.54,3.61,4.8,2.81,16.4,10.43,18.82,7.62,2.42,4.21,9.32,6.25,10.42,2.04,1.1,10.27,22.96,10.27,22.96Z"/>
  <path class="cls-21" d="m1767.58,1066.7s-3.21-18.27,0-23.49c3.21-5.22-7.84-10.35-.71-17.79,7.13-7.44-6.11-15.78,1.31-20.44,7.42-4.66,1-14.08,5.82-17.61s-6.42-11.63,0-15.23c6.42-3.6,1.6-9.49,4.81-11.84,3.21-2.35,0-16.48,3.21-16.48s-11.23-17.66-4.81-21.19c6.42-3.53,4.67-17.41,9.56-17.53,4.88-.12-4.88-10.51,0-12.97,4.88-2.46-1.53-16.58,4.88-17.76,6.42-1.18,6.42-14.13,8.02-14.13s32.09,1.18,20.86,9.42c-11.23,8.24-2.51,14.43-9.28,20.16-6.77,5.73,2.23,14.5-6.28,19.53-8.51,5.04,4.33,16.81-5.3,22.69-9.63,5.89-.68,20.73-5.96,22.72-5.28,2,3.67,12.73,0,17.37-3.67,4.64,6.88,11.55,0,18.1-6.88,6.55,10.09,9.98,0,14.74-10.09,4.76,2.75,11.82-5.28,16.53-8.02,4.71.35,9.49-5.44,13.57-5.79,4.09-.98,6.44-2.58,9.97s1.6,5.89-1.6,10.59c-3.21,4.71-11.23,11.06-11.23,11.06Z"/>
  <path class="cls-21" d="m1764.64,1077.75s-16.32-50.36-14.71-58.6-14.88-21.45-13.05-26.61c1.82-5.17-12.06-13.27-9.13-20.4,2.93-7.13-11.51-18.9-3.49-24.79,8.02-5.89-9.63-28.25-6.42-31.78,3.21-3.53-2.39-16.07-.39-17.45,2-1.38-4.49-19.6-.44-25.8,4.05-6.19-5.16-15.76-1.36-19.81,3.8-4.04-11.55-16.79-5.48-21.01s2.86-12.46,9.28-12.46,20.04,2.15,17.24,8.14c-2.8,5.99-9.22,14.23-4.41,15.41,4.81,1.18,12.84,2.35,8.02,7.06-4.81,4.71-10.6,8.24-6.91,10.59,3.7,2.35,8.08,8.19,3.48,11.16-4.6,2.97-6.2,6.5-2.99,8.85,3.21,2.35,7.59,3.83,2.99,9.57-4.6,5.73-5.03,21.65,0,24.88,5.03,3.22,2.99,5.68,0,11.52-2.99,5.83,1.39,14.69,0,20.27-1.39,5.58,5.03,15,3.43,19.71-1.6,4.71,12.84,9.42,9.63,15.3-3.21,5.89,6.21,10.39,2.3,14.61s7.33,21.88,7.33,21.88v14.13c0,2.35,5.09,45.65,5.09,45.65Z"/>
  <path class="cls-21" d="m1774.24,1087.75s15.48-50.51,21.85-57.39c6.37-6.89-.53-24.06,4.2-28.12,4.73-4.06-2.89-15.81,4.01-21.27,6.9-5.46.97-20.69,11.7-23.4,10.73-2.7,8.26-28.48,13.25-30.62,5-2.14,7.47-15.21,10.09-15.81,2.62-.6,7.7-19.06,15.04-23.32,7.34-4.26,4.8-15.82,10.63-18.23,5.83-2.41-.33-18.8,7.65-20.64,7.98-1.84,10.03-10.28,15.79-8.21,5.77,2.07,16.72,8.39,10.62,12.87-6.1,4.48-16.8,9.81-13.18,12.42,3.62,2.61,10.12,6.25,2.98,8.93s-14.46,3.99-12.55,7.29c1.91,3.31,2.36,9.96-3.55,11.15-5.91,1.19-9.46,3.84-7.99,6.99,1.47,3.15,4.52,5.89-3.04,9.56s-17.48,17.83-14.89,22.35c2.59,4.52-.71,6.07-6.89,10.35-6.18,4.28-7.54,13.64-12.13,18.21s-4.45,15.09-8.71,18.81c-4.26,3.71,5.9,12.6-.51,16.85-6.41,4.25-.64,11.33-6.68,13.87-6.04,2.54-6.51,22.02-6.51,22.02,0,0-7.04,10.58-8.45,12.69-1.41,2.12-22.75,42.66-22.75,42.66Z"/>
  <path class="cls-20" d="m1245.6,720.18s4.15-25.82,7.17-28.77,14.08-11.07,7.04-22.87c-7.04-11.8-38.21-40.57-34.19-47.95s17.09-14.75,14.08-26.56c-3.02-11.8,6.03,3.69,6.03,3.69,0,0-3.02,19.18-8.04,20.66-5.03,1.48-9.05,9.59-1.01,14.75,8.04,5.16,38.21,37.62,33.18,45.74-5.03,8.11-13.07,12.54-14.08,17.7s-4.02,25.82-4.02,25.82l-6.16-2.21Z"/>
  <path class="cls-20" d="m1233.05,720.18s14.69-23.61,11.67-35.41-31.17-40.57-24.13-48.69c7.04-8.11,41.23-10.33,38.21-16.23s-55.3-10.33-46.25-14.75,39.22,5.9,39.22,5.9c0,0,33.18,6.64,14.08,13.28-19.1,6.64-41.23,8.85-37.2,15.49,4.02,6.64,24.13,39.84,24.13,42.05s-9.2,33.93-11.14,38.36c-1.94,4.43-8.58,0-8.58,0Z"/>
  <path class="cls-20" d="m1199.48,726.82s-42.23-19.18-20.11-31.72c22.12-12.54,43.24-21.39,20.11-27.29-23.13-5.9-59.63-10.42-32.83-17.38,26.8-6.96,37.86-16.55,38.87-23.19,1.01-6.64,4.01,1.7,4.01,1.7,0,0-7.02,9.08-10.54,11.07s-27.65,13.79-31.67,13.79,8.04,4.43,10.06,4.43,28.15,8.11,28.15,8.11c0,0,11.98,4.07,9.01,9.41s-34.14,21.57-34.14,23.05,1.01,11.07,9.05,16.97,15.65,11.07,15.65,11.07h-5.6Z"/>
  <path class="cls-20" d="m1218.58,726.82c1.01-2.95,7.04-13.28,4.02-21.39-3.02-8.11-18.93-39.84-13.99-49.43s-22.51-45.15-22.51-45.15c0,0,1.31-1.32,3.32,1.64,2.01,2.95,21.12,30.25,21.12,33.2s-1.01,12.54-1.01,14.75,14.37,44.29,15.73,45.38.65,13.14,0,16.34-3.67,6.15-3.67,6.15l-3.02-1.48Z"/>
  <path class="cls-20" d="m1217.18,727.56s7.65-9.81,0-17.45c-7.65-7.63-18.49-19.05-9.05-29.2,9.44-10.15,20.7-13.35,15.57-22.45-5.12-9.09-25.38-25.36-21.79-25.71,3.59-.35,26.64,26.27,26.64,26.27,0,0,2.09,11-1.94,13.95s-20.11,10.33-18.1,14.02,9.05,15.49,11.06,18.44,9.05,10.33,7.04,14.75c-2.01,4.43-4.02,10.33-4.02,10.33l-5.42-2.95Z"/>
  <path class="cls-20" d="m884.62,771.82s4.15-25.82,7.17-28.77,14.08-11.07,7.04-22.87c-7.04-11.8-38.21-40.57-34.19-47.95,4.02-7.38,17.09-14.75,14.08-26.56-3.02-11.8,6.03,3.69,6.03,3.69,0,0-3.02,19.18-8.04,20.66-5.03,1.48-9.05,9.59-1.01,14.75,8.04,5.16,38.21,37.62,33.18,45.74-5.03,8.11-13.07,12.54-14.08,17.7-1.01,5.16-4.02,25.82-4.02,25.82l-6.16-2.21Z"/>
  <path class="cls-20" d="m872.07,771.82s14.69-23.61,11.67-35.41c-3.02-11.8-31.17-40.57-24.13-48.69,7.04-8.11,41.23-10.33,38.21-16.23s-55.3-10.33-46.25-14.75c9.05-4.43,39.22,5.9,39.22,5.9,0,0,33.18,6.64,14.08,13.28-19.1,6.64-41.23,8.85-37.2,15.49,4.02,6.64,24.13,39.84,24.13,42.05,0,2.21-9.2,33.93-11.14,38.36s-8.58,0-8.58,0Z"/>
  <path class="cls-20" d="m838.5,778.46s-42.23-19.18-20.11-31.72c22.12-12.54,43.24-21.39,20.11-27.29-23.13-5.9-59.63-10.42-32.83-17.38,26.8-6.96,37.86-16.55,38.87-23.19s4.01,1.7,4.01,1.7c0,0-7.02,9.08-10.54,11.07-3.52,1.99-27.65,13.79-31.67,13.79s8.04,4.43,10.06,4.43,28.15,8.11,28.15,8.11c0,0,11.98,4.07,9.01,9.41-2.97,5.34-34.14,21.57-34.14,23.05s1.01,11.07,9.05,16.97,15.65,11.07,15.65,11.07h-5.6Z"/>
  <path class="cls-20" d="m857.6,778.46c1.01-2.95,7.04-13.28,4.02-21.39-3.02-8.11-18.93-39.84-13.99-49.43,4.94-9.59-22.51-45.15-22.51-45.15,0,0,1.31-1.32,3.32,1.64s21.12,30.25,21.12,33.2-1.01,12.54-1.01,14.75,14.37,44.29,15.73,45.38.65,13.14,0,16.34-3.67,6.15-3.67,6.15l-3.02-1.48Z"/>
  <path class="cls-20" d="m856.2,779.2s7.65-9.81,0-17.45c-7.65-7.63-18.49-19.05-9.05-29.2,9.44-10.15,20.7-13.35,15.57-22.45-5.12-9.09-25.38-25.36-21.79-25.71s26.64,26.27,26.64,26.27c0,0,2.09,11-1.94,13.95s-20.11,10.33-18.1,14.02,9.05,15.49,11.06,18.44,9.05,10.33,7.04,14.75-4.02,10.33-4.02,10.33l-5.42-2.95Z"/>
  <path class="cls-20" d="m546.76,720.18s4.15-25.82,7.17-28.77c3.02-2.95,14.08-11.07,7.04-22.87-7.04-11.8-38.21-40.57-34.19-47.95,4.02-7.38,17.09-14.75,14.08-26.56-3.02-11.8,6.03,3.69,6.03,3.69,0,0-3.02,19.18-8.04,20.66-5.03,1.48-9.05,9.59-1.01,14.75,8.04,5.16,38.21,37.62,33.18,45.74s-13.07,12.54-14.08,17.7-4.02,25.82-4.02,25.82l-6.16-2.21Z"/>
  <path class="cls-20" d="m534.22,720.18s14.69-23.61,11.67-35.41-31.17-40.57-24.13-48.69c7.04-8.11,41.23-10.33,38.21-16.23s-55.3-10.33-46.25-14.75,39.22,5.9,39.22,5.9c0,0,33.18,6.64,14.08,13.28-19.1,6.64-41.23,8.85-37.2,15.49,4.02,6.64,24.13,39.84,24.13,42.05s-9.2,33.93-11.14,38.36-8.58,0-8.58,0Z"/>
  <path class="cls-20" d="m500.64,726.82s-42.23-19.18-20.11-31.72c22.12-12.54,43.24-21.39,20.11-27.29-23.13-5.9-59.63-10.42-32.83-17.38,26.8-6.96,37.86-16.55,38.87-23.19s4.01,1.7,4.01,1.7c0,0-7.02,9.08-10.54,11.07s-27.65,13.79-31.67,13.79,8.04,4.43,10.06,4.43,28.15,8.11,28.15,8.11c0,0,11.98,4.07,9.01,9.41s-34.14,21.57-34.14,23.05,1.01,11.07,9.05,16.97c8.04,5.9,15.65,11.07,15.65,11.07h-5.6Z"/>
  <path class="cls-20" d="m519.74,726.82c1.01-2.95,7.04-13.28,4.02-21.39s-18.93-39.84-13.99-49.43-22.51-45.15-22.51-45.15c0,0,1.31-1.32,3.32,1.64s21.12,30.25,21.12,33.2-1.01,12.54-1.01,14.75,14.37,44.29,15.73,45.38.65,13.14,0,16.34-3.67,6.15-3.67,6.15l-3.02-1.48Z"/>
  <path class="cls-20" d="m518.35,727.56s7.65-9.81,0-17.45c-7.65-7.63-18.49-19.05-9.05-29.2s20.7-13.35,15.57-22.45-25.38-25.36-21.79-25.71c3.59-.35,26.64,26.27,26.64,26.27,0,0,2.09,11-1.94,13.95s-20.11,10.33-18.1,14.02,9.05,15.49,11.06,18.44,9.05,10.33,7.04,14.75-4.02,10.33-4.02,10.33l-5.42-2.95Z"/>
  <path class="cls-12" d="m492.6,962.14s-13.07-13.28-28.15-19.18c-15.08-5.9-22.12-8.11-22.12-9.59s30.17-19.18,30.17-19.18c0,0,14.08,25.82,26.14,29.51,12.07,3.69,22.12,10.33,22.12,10.33l-28.15,8.11Z"/>
  <path class="cls-12" d="m516.15,958.39s-33.21-47.66-28.89-48.88,37.51-11.55,37.51-4.17-3.02,14.05,0,19.56c3.02,5.52,15.08,19.53,15.08,19.53v12.03l-23.7,1.92Z"/>
  <polygon class="cls-12" points="523.85 914.19 533.82 911.98 536.84 920.83 523.44 919.13 523.85 914.19"/>
  <polygon class="cls-12" points="924.97 1003.45 915.92 973.21 920.45 973.21 924.97 978.79 930 969.52 925.32 962.14 948.4 962.14 942.63 982.8 957.15 1006.4 924.97 1003.45"/>
  <polygon class="cls-12" points="978.26 1010.09 966.2 976.16 1002.4 971.73 992.21 1006.4 978.26 1010.09"/>
  <polygon class="cls-12" points="986.31 973.94 994.35 932.63 1018.48 934.11 1000.42 978.46 986.31 973.94"/>
  <polygon class="cls-12" points="1002.4 964.16 1018.48 957.52 1020.49 970.99 999.29 971.38 1002.4 964.16"/>
  <path class="cls-12" d="m981.28,977.44c-1.01-2.76-15.08-18.25-15.08-18.25l18.1-5.9,7.04,14.02v10.14h-10.06Z"/>
</svg>