<?xml version="1.0" encoding="UTF-8"?>
<svg id="Calque_1" data-name="Calque 1" xmlns="http://www.w3.org/2000/svg" xmlns:xlink="http://www.w3.org/1999/xlink" viewBox="0 0 1183.03 790.59">
  <defs>
    <style>
      .cls-1 {
        fill: none;
        stroke: #f7b2ce;
        stroke-miterlimit: 10;
        stroke-width: 3px;
      }

      .cls-2 {
        fill: #f7b2ce;
      }

      .cls-3 {
        fill: url(#Dégradé_sans_nom_317);
      }

      .cls-4 {
        fill: url(#Dégradé_sans_nom_331);
      }

      .cls-5 {
        fill: url(#Dégradé_sans_nom_312);
      }
    </style>
    <linearGradient id="Dégradé_sans_nom_312" data-name="Dégradé sans nom 312" x1="450.71" y1="840.89" x2="513.32" y2="840.89" gradientTransform="translate(1562.06 -111.62) rotate(-177.13) scale(1 -1)" gradientUnits="userSpaceOnUse">
      <stop offset=".11" stop-color="#fdb0dd"/>
      <stop offset=".16" stop-color="#fdb4df"/>
      <stop offset=".41" stop-color="#fdc6e9"/>
      <stop offset=".67" stop-color="#fdd0ef"/>
      <stop offset=".97" stop-color="#fed4f1"/>
    </linearGradient>
    <linearGradient id="Dégradé_sans_nom_317" data-name="Dégradé sans nom 317" x1="1127.53" y1="474.41" x2="1334.02" y2="474.41" gradientTransform="translate(1562.06 -111.62) rotate(-177.13) scale(1 -1)" gradientUnits="userSpaceOnUse">
      <stop offset=".2" stop-color="#fed4f1"/>
      <stop offset=".67" stop-color="#fdb6e0"/>
      <stop offset=".77" stop-color="#fdb0dd"/>
    </linearGradient>
    <linearGradient id="Dégradé_sans_nom_331" data-name="Dégradé sans nom 331" x1="333.82" y1="536.43" x2="1541.29" y2="536.43" gradientTransform="translate(1562.06 -111.62) rotate(-177.13) scale(1 -1)" gradientUnits="userSpaceOnUse">
      <stop offset="0" stop-color="#fd8bdd"/>
      <stop offset=".29" stop-color="#fd9ce1"/>
      <stop offset=".85" stop-color="#fdc9ee"/>
      <stop offset=".97" stop-color="#fed4f1"/>
    </linearGradient>
  </defs>
  <path class="cls-5" d="m1069.21,703.96s1.62,26.75-4.29,26.45-21.24-4.77-24.35-1.96c-3.1,2.81-11.6,24.6-11.82,29.04-.22,4.43-10.34-30.15-11.67-33.18s-10.78-50.91-7.38-59.63c3.4-8.72,12.64-15.66,12.64-15.66l46.88,54.94Z"/>
  <path class="cls-3" d="m333.81,287.14s17.14,12.71,19.95,15.81c2.81,3.1,11.45,7.98,12.93,8.05,1.48.07,27.26,17.66,30,22.24,2.73,4.58,16.92,17.14,12.26,21.35-4.66,4.21-15,3.69-15,3.69,0,0-58.42.04-66.08-3.31-7.66-3.35-75-33.55-78.9-37.37s-41.21-57.54-41.21-57.54c0,0,30.52-17.73,37.91-17.36,7.39.37,87.48,28.08,87.33,31.04s.81,13.37.81,13.37Z"/>
  <path class="cls-4" d="m176.36,265.92s-6.58,13-17.14,16.92c-10.57,3.92-40.56,11.3-46.85,18.39s-52.17,35.9-52.31,38.86c-.15,2.96-16.18,27.34-25.2,29.85-9.01,2.51-30.15,10.34-32.29-6.06-2.14-16.4-4.58-26.9.15-32.58,4.73-5.69,11.31-18.69,8.72-26.23-2.59-7.54-12.78-40.64-9.9-68.64,2.88-28,23.28-80.31,48.4-108.68,25.12-28.37,96.72-67.75,155.24-82.59,58.52-14.85,133.22-27.4,202.23-15.06,69.01,12.34,110.09,20.33,118.88,22.25,8.79,1.92,11.75,2.07,26.75-1.62,15-3.69,80.02-30.07,84.53-31.32,4.51-1.26,55.64-16.47,75-18.47,19.36-1.99,46.28-.65,53.36,2.67,7.08,3.32,21.56,9.97,15.35,15.58-6.21,5.61-47.51,31.69-52.54,43.29-5.03,11.6-16.55,34.73-15.52,43.67,1.03,8.94,12.56,45.07,38.05,68.57,25.49,23.5,134.83,147.49,138.97,153.62,4.14,6.13,109.12,128.42,117.47,139.21,8.35,10.79,28.89,44.41,35.09,68.42,6.2,24.01,20.83,86.97,22.16,90,1.33,3.03,44.11,36.28,55.26,50.17,11.16,13.89,47.13,64.58,49.57,75.07s13.52,25.86,13.22,31.77c-.3,5.91-2,10.27-4.73,5.69-2.73-4.58-23.57-32.29-35.17-37.32-11.6-5.03-28.96-13.3-42.19-15.45-13.23-2.14-23.79,1.77-26.23-8.72-2.44-10.49-6.5-18.1-6.5-18.1,0,0-77.28-83.87-85.78-91.7-8.5-7.83-216.1-181.19-275.8-201.95-59.7-20.77-52.24-21.87-76.99-30.52-24.75-8.65-214.19-71.47-214.19-71.47,0,0-131.07-45.08-134.03-45.23s-27.85-5.84-29.33-5.91c-1.48-.07-28.22,1.55-32.66,1.33-4.43-.22-22.39,3.32-28.37,4.5-5.98,1.18-14.7-2.22-14.7-2.22Z"/>
  <path class="cls-1" d="m3.71,355.79s7.54-2.59,10.64-5.39c3.1-2.81,15.44-12.56,20.32-21.2,4.88-8.64,22.69-38.86,24.39-43.22,1.7-4.36,8.76-12.15,11.93-16.44,3.18-4.29,8.28-17.36,8.28-17.36,0,0,9.68-15.81,11.31-18.69,1.63-2.88,7.76-7.02,9.31-8.42"/>
  <path class="cls-2" d="m158.61,142.16s-15.34,27.17-24.91,32.27c-9.57,5.11-18.87,4.64-19.14,10.22s-4.93,5.34,4.37,5.81c9.29.47,43.49-31.34,39.69-48.3Z"/>
</svg>